<svg xmlns="http://www.w3.org/2000/svg" enable-background="new 0 0 47.5 47.5" viewBox="0 0 47.5 47.5"><defs><clipPath id="a" clipPathUnits="userSpaceOnUse"><path d="M 0,38 38,38 38,0 0,0 0,38 Z"/></clipPath></defs><g clip-path="url(#a)" transform="matrix(1.25 0 0 -1.25 0 47.5)"><path fill="#77b255" d="m 0,0 c 0,-2.209 -1.791,-4 -4,-4 l -28,0 c -2.209,0 -4,1.791 -4,4 l 0,28 c 0,2.209 1.791,4 4,4 l 28,0 c 2.209,0 4,-1.791 4,-4 L 0,0 Z" transform="translate(37 5)"/><path fill="#fff" d="m 0,0 8.238,8.238 c 0.977,0.976 0.977,2.559 0,3.535 -0.976,0.977 -2.558,0.977 -3.535,0 l -8.238,-8.238 -8.238,8.238 c -0.976,0.977 -2.56,0.977 -3.536,0 -0.976,-0.976 -0.976,-2.559 0,-3.535 L -7.07,0 -15.328,-8.258 c -0.977,-0.977 -0.977,-2.559 0,-3.535 0.488,-0.489 1.128,-0.733 1.767,-0.733 0.64,0 1.28,0.244 1.768,0.733 l 8.258,8.258 8.238,-8.238 c 0.488,-0.488 1.128,-0.732 1.768,-0.732 0.639,0 1.279,0.244 1.767,0.732 0.977,0.977 0.977,2.559 0,3.535 L 0,0 Z" transform="translate(22.53 18.994)"/></g></svg>